<mxfile host="65bd71144e">
    <diagram id="jBrKS_1D_6g_CG4RRr3D" name="Page-1">
        <mxGraphModel dx="1261" dy="744" grid="1" gridSize="10" guides="1" tooltips="1" connect="1" arrows="1" fold="1" page="1" pageScale="1" pageWidth="850" pageHeight="1100" math="0" shadow="0">
            <root>
                <mxCell id="0"/>
                <mxCell id="1" parent="0"/>
                <mxCell id="12" value="User" style="shape=table;startSize=20;container=1;collapsible=0;childLayout=tableLayout;fixedRows=1;rowLines=0;fontStyle=1;" parent="1" vertex="1">
                    <mxGeometry x="230" y="140" width="160" height="190" as="geometry"/>
                </mxCell>
                <mxCell id="13" value="" style="shape=tableRow;horizontal=0;startSize=0;swimlaneHead=0;swimlaneBody=0;top=0;left=0;bottom=0;right=0;collapsible=0;dropTarget=0;fillColor=none;points=[[0,0.5],[1,0.5]];portConstraint=eastwest;" parent="12" vertex="1">
                    <mxGeometry y="20" width="160" height="20" as="geometry"/>
                </mxCell>
                <mxCell id="14" value="PK" style="shape=partialRectangle;html=1;whiteSpace=wrap;connectable=0;fillColor=none;top=0;left=0;bottom=0;right=0;overflow=hidden;pointerEvents=1;" parent="13" vertex="1">
                    <mxGeometry width="28" height="20" as="geometry">
                        <mxRectangle width="28" height="20" as="alternateBounds"/>
                    </mxGeometry>
                </mxCell>
                <mxCell id="15" value="Primary Key" style="shape=partialRectangle;html=1;whiteSpace=wrap;connectable=0;fillColor=none;top=0;left=0;bottom=0;right=0;align=left;spacingLeft=6;overflow=hidden;" parent="13" vertex="1">
                    <mxGeometry x="28" width="132" height="20" as="geometry">
                        <mxRectangle width="132" height="20" as="alternateBounds"/>
                    </mxGeometry>
                </mxCell>
                <mxCell id="16" value="" style="shape=tableRow;horizontal=0;startSize=0;swimlaneHead=0;swimlaneBody=0;top=0;left=0;bottom=0;right=0;collapsible=0;dropTarget=0;fillColor=none;points=[[0,0.5],[1,0.5]];portConstraint=eastwest;" parent="12" vertex="1">
                    <mxGeometry y="40" width="160" height="30" as="geometry"/>
                </mxCell>
                <mxCell id="17" value="1" style="shape=partialRectangle;html=1;whiteSpace=wrap;connectable=0;fillColor=none;top=0;left=0;bottom=0;right=0;overflow=hidden;" parent="16" vertex="1">
                    <mxGeometry width="28" height="30" as="geometry">
                        <mxRectangle width="28" height="30" as="alternateBounds"/>
                    </mxGeometry>
                </mxCell>
                <mxCell id="18" value="username" style="shape=partialRectangle;html=1;whiteSpace=wrap;connectable=0;fillColor=none;top=0;left=0;bottom=0;right=0;align=left;spacingLeft=6;overflow=hidden;" parent="16" vertex="1">
                    <mxGeometry x="28" width="132" height="30" as="geometry">
                        <mxRectangle width="132" height="30" as="alternateBounds"/>
                    </mxGeometry>
                </mxCell>
                <mxCell id="19" value="" style="shape=tableRow;horizontal=0;startSize=0;swimlaneHead=0;swimlaneBody=0;top=0;left=0;bottom=0;right=0;collapsible=0;dropTarget=0;fillColor=none;points=[[0,0.5],[1,0.5]];portConstraint=eastwest;" parent="12" vertex="1">
                    <mxGeometry y="70" width="160" height="30" as="geometry"/>
                </mxCell>
                <mxCell id="20" value="2" style="shape=partialRectangle;html=1;whiteSpace=wrap;connectable=0;fillColor=none;top=0;left=0;bottom=0;right=0;overflow=hidden;" parent="19" vertex="1">
                    <mxGeometry width="28" height="30" as="geometry">
                        <mxRectangle width="28" height="30" as="alternateBounds"/>
                    </mxGeometry>
                </mxCell>
                <mxCell id="21" value="email" style="shape=partialRectangle;html=1;whiteSpace=wrap;connectable=0;fillColor=none;top=0;left=0;bottom=0;right=0;align=left;spacingLeft=6;overflow=hidden;" parent="19" vertex="1">
                    <mxGeometry x="28" width="132" height="30" as="geometry">
                        <mxRectangle width="132" height="30" as="alternateBounds"/>
                    </mxGeometry>
                </mxCell>
                <mxCell id="22" value="" style="shape=tableRow;horizontal=0;startSize=0;swimlaneHead=0;swimlaneBody=0;top=0;left=0;bottom=0;right=0;collapsible=0;dropTarget=0;fillColor=none;points=[[0,0.5],[1,0.5]];portConstraint=eastwest;" parent="12" vertex="1">
                    <mxGeometry y="100" width="160" height="30" as="geometry"/>
                </mxCell>
                <mxCell id="23" value="3" style="shape=partialRectangle;html=1;whiteSpace=wrap;connectable=0;fillColor=none;top=0;left=0;bottom=0;right=0;overflow=hidden;" parent="22" vertex="1">
                    <mxGeometry width="28" height="30" as="geometry">
                        <mxRectangle width="28" height="30" as="alternateBounds"/>
                    </mxGeometry>
                </mxCell>
                <mxCell id="24" value="password" style="shape=partialRectangle;html=1;whiteSpace=wrap;connectable=0;fillColor=none;top=0;left=0;bottom=0;right=0;align=left;spacingLeft=6;overflow=hidden;" parent="22" vertex="1">
                    <mxGeometry x="28" width="132" height="30" as="geometry">
                        <mxRectangle width="132" height="30" as="alternateBounds"/>
                    </mxGeometry>
                </mxCell>
                <mxCell id="25" value="" style="shape=tableRow;horizontal=0;startSize=0;swimlaneHead=0;swimlaneBody=0;top=0;left=0;bottom=0;right=0;collapsible=0;dropTarget=0;fillColor=none;points=[[0,0.5],[1,0.5]];portConstraint=eastwest;" parent="12" vertex="1">
                    <mxGeometry y="130" width="160" height="30" as="geometry"/>
                </mxCell>
                <mxCell id="26" value="4" style="shape=partialRectangle;html=1;whiteSpace=wrap;connectable=0;fillColor=none;top=0;left=0;bottom=0;right=0;overflow=hidden;" parent="25" vertex="1">
                    <mxGeometry width="28" height="30" as="geometry">
                        <mxRectangle width="28" height="30" as="alternateBounds"/>
                    </mxGeometry>
                </mxCell>
                <mxCell id="27" value="created_at" style="shape=partialRectangle;html=1;whiteSpace=wrap;connectable=0;fillColor=none;top=0;left=0;bottom=0;right=0;align=left;spacingLeft=6;overflow=hidden;" parent="25" vertex="1">
                    <mxGeometry x="28" width="132" height="30" as="geometry">
                        <mxRectangle width="132" height="30" as="alternateBounds"/>
                    </mxGeometry>
                </mxCell>
                <mxCell id="83" value="" style="shape=tableRow;horizontal=0;startSize=0;swimlaneHead=0;swimlaneBody=0;top=0;left=0;bottom=0;right=0;collapsible=0;dropTarget=0;fillColor=none;points=[[0,0.5],[1,0.5]];portConstraint=eastwest;" parent="12" vertex="1">
                    <mxGeometry y="160" width="160" height="30" as="geometry"/>
                </mxCell>
                <mxCell id="84" value="" style="shape=partialRectangle;html=1;whiteSpace=wrap;connectable=0;fillColor=none;top=0;left=0;bottom=0;right=0;overflow=hidden;" parent="83" vertex="1">
                    <mxGeometry width="28" height="30" as="geometry">
                        <mxRectangle width="28" height="30" as="alternateBounds"/>
                    </mxGeometry>
                </mxCell>
                <mxCell id="85" value="" style="shape=partialRectangle;html=1;whiteSpace=wrap;connectable=0;fillColor=none;top=0;left=0;bottom=0;right=0;align=left;spacingLeft=6;overflow=hidden;" parent="83" vertex="1">
                    <mxGeometry x="28" width="132" height="30" as="geometry">
                        <mxRectangle width="132" height="30" as="alternateBounds"/>
                    </mxGeometry>
                </mxCell>
                <mxCell id="47" value="Photo" style="shape=table;startSize=20;container=1;collapsible=0;childLayout=tableLayout;fixedRows=1;rowLines=0;fontStyle=1;" parent="1" vertex="1">
                    <mxGeometry x="220" y="440" width="180" height="170" as="geometry"/>
                </mxCell>
                <mxCell id="48" value="" style="shape=tableRow;horizontal=0;startSize=0;swimlaneHead=0;swimlaneBody=0;top=0;left=0;bottom=0;right=0;collapsible=0;dropTarget=0;fillColor=none;points=[[0,0.5],[1,0.5]];portConstraint=eastwest;" parent="47" vertex="1">
                    <mxGeometry y="20" width="180" height="30" as="geometry"/>
                </mxCell>
                <mxCell id="49" value="PK" style="shape=partialRectangle;html=1;whiteSpace=wrap;connectable=0;fillColor=none;top=0;left=0;bottom=0;right=0;overflow=hidden;pointerEvents=1;" parent="48" vertex="1">
                    <mxGeometry width="40" height="30" as="geometry">
                        <mxRectangle width="40" height="30" as="alternateBounds"/>
                    </mxGeometry>
                </mxCell>
                <mxCell id="50" value="Primary Key" style="shape=partialRectangle;html=1;whiteSpace=wrap;connectable=0;fillColor=none;top=0;left=0;bottom=0;right=0;align=left;spacingLeft=6;overflow=hidden;" parent="48" vertex="1">
                    <mxGeometry x="40" width="140" height="30" as="geometry">
                        <mxRectangle width="140" height="30" as="alternateBounds"/>
                    </mxGeometry>
                </mxCell>
                <mxCell id="51" value="" style="shape=tableRow;horizontal=0;startSize=0;swimlaneHead=0;swimlaneBody=0;top=0;left=0;bottom=0;right=0;collapsible=0;dropTarget=0;fillColor=none;points=[[0,0.5],[1,0.5]];portConstraint=eastwest;" parent="47" vertex="1">
                    <mxGeometry y="50" width="180" height="30" as="geometry"/>
                </mxCell>
                <mxCell id="52" value="1" style="shape=partialRectangle;html=1;whiteSpace=wrap;connectable=0;fillColor=none;top=0;left=0;bottom=0;right=0;overflow=hidden;" parent="51" vertex="1">
                    <mxGeometry width="40" height="30" as="geometry">
                        <mxRectangle width="40" height="30" as="alternateBounds"/>
                    </mxGeometry>
                </mxCell>
                <mxCell id="53" value="user_id" style="shape=partialRectangle;html=1;whiteSpace=wrap;connectable=0;fillColor=none;top=0;left=0;bottom=0;right=0;align=left;spacingLeft=6;overflow=hidden;" parent="51" vertex="1">
                    <mxGeometry x="40" width="140" height="30" as="geometry">
                        <mxRectangle width="140" height="30" as="alternateBounds"/>
                    </mxGeometry>
                </mxCell>
                <mxCell id="54" value="" style="shape=tableRow;horizontal=0;startSize=0;swimlaneHead=0;swimlaneBody=0;top=0;left=0;bottom=0;right=0;collapsible=0;dropTarget=0;fillColor=none;points=[[0,0.5],[1,0.5]];portConstraint=eastwest;" parent="47" vertex="1">
                    <mxGeometry y="80" width="180" height="30" as="geometry"/>
                </mxCell>
                <mxCell id="55" value="2" style="shape=partialRectangle;html=1;whiteSpace=wrap;connectable=0;fillColor=none;top=0;left=0;bottom=0;right=0;overflow=hidden;" parent="54" vertex="1">
                    <mxGeometry width="40" height="30" as="geometry">
                        <mxRectangle width="40" height="30" as="alternateBounds"/>
                    </mxGeometry>
                </mxCell>
                <mxCell id="56" value="photo_url" style="shape=partialRectangle;html=1;whiteSpace=wrap;connectable=0;fillColor=none;top=0;left=0;bottom=0;right=0;align=left;spacingLeft=6;overflow=hidden;" parent="54" vertex="1">
                    <mxGeometry x="40" width="140" height="30" as="geometry">
                        <mxRectangle width="140" height="30" as="alternateBounds"/>
                    </mxGeometry>
                </mxCell>
                <mxCell id="57" value="" style="shape=tableRow;horizontal=0;startSize=0;swimlaneHead=0;swimlaneBody=0;top=0;left=0;bottom=0;right=0;collapsible=0;dropTarget=0;fillColor=none;points=[[0,0.5],[1,0.5]];portConstraint=eastwest;" parent="47" vertex="1">
                    <mxGeometry y="110" width="180" height="30" as="geometry"/>
                </mxCell>
                <mxCell id="58" value="3" style="shape=partialRectangle;html=1;whiteSpace=wrap;connectable=0;fillColor=none;top=0;left=0;bottom=0;right=0;overflow=hidden;" parent="57" vertex="1">
                    <mxGeometry width="40" height="30" as="geometry">
                        <mxRectangle width="40" height="30" as="alternateBounds"/>
                    </mxGeometry>
                </mxCell>
                <mxCell id="59" value="description&lt;br&gt;" style="shape=partialRectangle;html=1;whiteSpace=wrap;connectable=0;fillColor=none;top=0;left=0;bottom=0;right=0;align=left;spacingLeft=6;overflow=hidden;" parent="57" vertex="1">
                    <mxGeometry x="40" width="140" height="30" as="geometry">
                        <mxRectangle width="140" height="30" as="alternateBounds"/>
                    </mxGeometry>
                </mxCell>
                <mxCell id="60" value="" style="shape=tableRow;horizontal=0;startSize=0;swimlaneHead=0;swimlaneBody=0;top=0;left=0;bottom=0;right=0;collapsible=0;dropTarget=0;fillColor=none;points=[[0,0.5],[1,0.5]];portConstraint=eastwest;" parent="47" vertex="1">
                    <mxGeometry y="140" width="180" height="30" as="geometry"/>
                </mxCell>
                <mxCell id="61" value="4" style="shape=partialRectangle;html=1;whiteSpace=wrap;connectable=0;fillColor=none;top=0;left=0;bottom=0;right=0;overflow=hidden;" parent="60" vertex="1">
                    <mxGeometry width="40" height="30" as="geometry">
                        <mxRectangle width="40" height="30" as="alternateBounds"/>
                    </mxGeometry>
                </mxCell>
                <mxCell id="62" value="created_at" style="shape=partialRectangle;html=1;whiteSpace=wrap;connectable=0;fillColor=none;top=0;left=0;bottom=0;right=0;align=left;spacingLeft=6;overflow=hidden;" parent="60" vertex="1">
                    <mxGeometry x="40" width="140" height="30" as="geometry">
                        <mxRectangle width="140" height="30" as="alternateBounds"/>
                    </mxGeometry>
                </mxCell>
                <mxCell id="66" value="Like" style="shape=table;startSize=20;container=1;collapsible=0;childLayout=tableLayout;fixedRows=1;rowLines=0;fontStyle=1;" parent="1" vertex="1">
                    <mxGeometry x="610" y="140" width="180" height="170" as="geometry"/>
                </mxCell>
                <mxCell id="67" value="" style="shape=tableRow;horizontal=0;startSize=0;swimlaneHead=0;swimlaneBody=0;top=0;left=0;bottom=0;right=0;collapsible=0;dropTarget=0;fillColor=none;points=[[0,0.5],[1,0.5]];portConstraint=eastwest;" parent="66" vertex="1">
                    <mxGeometry y="20" width="180" height="30" as="geometry"/>
                </mxCell>
                <mxCell id="68" value="PK" style="shape=partialRectangle;html=1;whiteSpace=wrap;connectable=0;fillColor=none;top=0;left=0;bottom=0;right=0;overflow=hidden;pointerEvents=1;" parent="67" vertex="1">
                    <mxGeometry width="40" height="30" as="geometry">
                        <mxRectangle width="40" height="30" as="alternateBounds"/>
                    </mxGeometry>
                </mxCell>
                <mxCell id="69" value="Primary Key" style="shape=partialRectangle;html=1;whiteSpace=wrap;connectable=0;fillColor=none;top=0;left=0;bottom=0;right=0;align=left;spacingLeft=6;overflow=hidden;" parent="67" vertex="1">
                    <mxGeometry x="40" width="140" height="30" as="geometry">
                        <mxRectangle width="140" height="30" as="alternateBounds"/>
                    </mxGeometry>
                </mxCell>
                <mxCell id="70" value="" style="shape=tableRow;horizontal=0;startSize=0;swimlaneHead=0;swimlaneBody=0;top=0;left=0;bottom=0;right=0;collapsible=0;dropTarget=0;fillColor=none;points=[[0,0.5],[1,0.5]];portConstraint=eastwest;" parent="66" vertex="1">
                    <mxGeometry y="50" width="180" height="30" as="geometry"/>
                </mxCell>
                <mxCell id="71" value="1" style="shape=partialRectangle;html=1;whiteSpace=wrap;connectable=0;fillColor=none;top=0;left=0;bottom=0;right=0;overflow=hidden;" parent="70" vertex="1">
                    <mxGeometry width="40" height="30" as="geometry">
                        <mxRectangle width="40" height="30" as="alternateBounds"/>
                    </mxGeometry>
                </mxCell>
                <mxCell id="72" value="user_id" style="shape=partialRectangle;html=1;whiteSpace=wrap;connectable=0;fillColor=none;top=0;left=0;bottom=0;right=0;align=left;spacingLeft=6;overflow=hidden;" parent="70" vertex="1">
                    <mxGeometry x="40" width="140" height="30" as="geometry">
                        <mxRectangle width="140" height="30" as="alternateBounds"/>
                    </mxGeometry>
                </mxCell>
                <mxCell id="73" value="" style="shape=tableRow;horizontal=0;startSize=0;swimlaneHead=0;swimlaneBody=0;top=0;left=0;bottom=0;right=0;collapsible=0;dropTarget=0;fillColor=none;points=[[0,0.5],[1,0.5]];portConstraint=eastwest;" parent="66" vertex="1">
                    <mxGeometry y="80" width="180" height="30" as="geometry"/>
                </mxCell>
                <mxCell id="74" value="2" style="shape=partialRectangle;html=1;whiteSpace=wrap;connectable=0;fillColor=none;top=0;left=0;bottom=0;right=0;overflow=hidden;" parent="73" vertex="1">
                    <mxGeometry width="40" height="30" as="geometry">
                        <mxRectangle width="40" height="30" as="alternateBounds"/>
                    </mxGeometry>
                </mxCell>
                <mxCell id="75" value="photo_id" style="shape=partialRectangle;html=1;whiteSpace=wrap;connectable=0;fillColor=none;top=0;left=0;bottom=0;right=0;align=left;spacingLeft=6;overflow=hidden;" parent="73" vertex="1">
                    <mxGeometry x="40" width="140" height="30" as="geometry">
                        <mxRectangle width="140" height="30" as="alternateBounds"/>
                    </mxGeometry>
                </mxCell>
                <mxCell id="76" value="" style="shape=tableRow;horizontal=0;startSize=0;swimlaneHead=0;swimlaneBody=0;top=0;left=0;bottom=0;right=0;collapsible=0;dropTarget=0;fillColor=none;points=[[0,0.5],[1,0.5]];portConstraint=eastwest;" parent="66" vertex="1">
                    <mxGeometry y="110" width="180" height="30" as="geometry"/>
                </mxCell>
                <mxCell id="77" value="3" style="shape=partialRectangle;html=1;whiteSpace=wrap;connectable=0;fillColor=none;top=0;left=0;bottom=0;right=0;overflow=hidden;" parent="76" vertex="1">
                    <mxGeometry width="40" height="30" as="geometry">
                        <mxRectangle width="40" height="30" as="alternateBounds"/>
                    </mxGeometry>
                </mxCell>
                <mxCell id="78" value="created_at" style="shape=partialRectangle;html=1;whiteSpace=wrap;connectable=0;fillColor=none;top=0;left=0;bottom=0;right=0;align=left;spacingLeft=6;overflow=hidden;" parent="76" vertex="1">
                    <mxGeometry x="40" width="140" height="30" as="geometry">
                        <mxRectangle width="140" height="30" as="alternateBounds"/>
                    </mxGeometry>
                </mxCell>
                <mxCell id="79" value="" style="shape=tableRow;horizontal=0;startSize=0;swimlaneHead=0;swimlaneBody=0;top=0;left=0;bottom=0;right=0;collapsible=0;dropTarget=0;fillColor=none;points=[[0,0.5],[1,0.5]];portConstraint=eastwest;" parent="66" vertex="1">
                    <mxGeometry y="140" width="180" height="30" as="geometry"/>
                </mxCell>
                <mxCell id="80" value="" style="shape=partialRectangle;html=1;whiteSpace=wrap;connectable=0;fillColor=none;top=0;left=0;bottom=0;right=0;overflow=hidden;" parent="79" vertex="1">
                    <mxGeometry width="40" height="30" as="geometry">
                        <mxRectangle width="40" height="30" as="alternateBounds"/>
                    </mxGeometry>
                </mxCell>
                <mxCell id="81" value="" style="shape=partialRectangle;html=1;whiteSpace=wrap;connectable=0;fillColor=none;top=0;left=0;bottom=0;right=0;align=left;spacingLeft=6;overflow=hidden;" parent="79" vertex="1">
                    <mxGeometry x="40" width="140" height="30" as="geometry">
                        <mxRectangle width="140" height="30" as="alternateBounds"/>
                    </mxGeometry>
                </mxCell>
                <mxCell id="93" style="edgeStyle=none;html=1;entryX=0;entryY=0.5;entryDx=0;entryDy=0;exitX=1;exitY=0.5;exitDx=0;exitDy=0;" edge="1" parent="1" source="48" target="73">
                    <mxGeometry relative="1" as="geometry">
                        <Array as="points">
                            <mxPoint x="480" y="235"/>
                        </Array>
                    </mxGeometry>
                </mxCell>
                <mxCell id="94" style="edgeStyle=none;html=1;entryX=0;entryY=0.5;entryDx=0;entryDy=0;" edge="1" parent="1" target="70">
                    <mxGeometry relative="1" as="geometry">
                        <mxPoint x="390" y="170" as="sourcePoint"/>
                    </mxGeometry>
                </mxCell>
                <mxCell id="96" style="edgeStyle=none;html=1;entryX=0;entryY=0.5;entryDx=0;entryDy=0;exitX=-0.002;exitY=-0.023;exitDx=0;exitDy=0;exitPerimeter=0;" edge="1" parent="1" source="16" target="51">
                    <mxGeometry relative="1" as="geometry">
                        <Array as="points">
                            <mxPoint x="160" y="330"/>
                            <mxPoint x="140" y="500"/>
                        </Array>
                    </mxGeometry>
                </mxCell>
            </root>
        </mxGraphModel>
    </diagram>
</mxfile>